HIERARCHY
ROOT root     
{
	OFFSET 0.0000 0.0000 0.0000
	CHANNELS 6 Xposition Yposition Zposition Zrotation Yrotation Xrotation
	JOINT pelvis   
	{
		OFFSET 0.0000 0.0000 0.0000
		CHANNELS 3 Zrotation Yrotation Xrotation
		JOINT thorax   
		{
			OFFSET 0.0000 23.0750 -5.0000
			CHANNELS 3 Zrotation Yrotation Xrotation
			JOINT rclavicle
			{
				OFFSET 0.0000 28.0009 0.0000
				CHANNELS 3 Zrotation Yrotation Xrotation
				JOINT rhumerus 
				{
					OFFSET -18.5725 5.5939 0.0000
					CHANNELS 3 Zrotation Yrotation Xrotation
					JOINT rradius  
					{
						OFFSET -24.8459 0.0000 0.0000
						CHANNELS 3 Zrotation Yrotation Xrotation
						JOINT rhand    
						{
							OFFSET -24.5477 0.0000 0.0000
							CHANNELS 3 Zrotation Yrotation Xrotation
							End Site
							{
								OFFSET -8.1826 0.0000 0.0000
							}
						}
					}
				}
			}
			JOINT lclavicle
			{
				OFFSET 0.0000 28.0009 0.0000
				CHANNELS 3 Zrotation Yrotation Xrotation
				JOINT lhumerus 
				{
					OFFSET 18.5725 5.5939 0.0000
					CHANNELS 3 Zrotation Yrotation Xrotation
					JOINT lradius  
					{
						OFFSET 24.8459 0.0000 0.0000
						CHANNELS 3 Zrotation Yrotation Xrotation
						JOINT lhand    
						{
							OFFSET 24.5477 0.0000 0.0000
							CHANNELS 3 Zrotation Yrotation Xrotation
							End Site
							{
								OFFSET 8.1826 0.0000 0.0000
							}
						}
					}
				}
			}
			JOINT head     
			{
				OFFSET 0.0000 35.2030 0.0000
				CHANNELS 3 Zrotation Yrotation Xrotation
				End Site
				{
					OFFSET 0.0000 11.7343 0.0000
				}
			}
		}
		JOINT rfemur   
		{
			OFFSET -8.2817 0.0000 0.0000
			CHANNELS 3 Zrotation Yrotation Xrotation
			JOINT rtibia   
			{
				OFFSET 0.0000 -43.3627 0.0000
				CHANNELS 3 Zrotation Yrotation Xrotation
				JOINT rfoot    
				{
					OFFSET 0.0000 -38.2947 0.0000
					CHANNELS 3 Zrotation Yrotation Xrotation
					JOINT rtoes    
					{
						OFFSET 0.0000 0.0000 16.6054
						CHANNELS 3 Zrotation Yrotation Xrotation
						End Site
						{
							OFFSET 0.0000 0.0000 5.5351
						}
					}
				}
			}
		}
		JOINT lfemur   
		{
			OFFSET 8.2817 0.0000 0.0000
			CHANNELS 3 Zrotation Yrotation Xrotation
			JOINT ltibia   
			{
				OFFSET 0.0000 -43.3627 0.0000
				CHANNELS 3 Zrotation Yrotation Xrotation
				JOINT lfoot    
				{
					OFFSET 0.0000 -38.2947 0.0000
					CHANNELS 3 Zrotation Yrotation Xrotation
					JOINT ltoes    
					{
						OFFSET 0.0000 0.0000 16.6054
						CHANNELS 3 Zrotation Yrotation Xrotation
						End Site
						{
							OFFSET 0.0000 0.0000 5.5351
						}
					}
				}
			}
		}
	}
}
MOTION
Frames: 21
Frame Time: .0333333
-12.64 73.683 0.4225 -101.67 88.526 -70.0251 0 -0 0 20.3911 -11.5377 11.8417 23.0207 -14.0803 -2.02613e-05 58.995 -7.17593 -8.02256 -0 87.9557 -0 -3.81336 5.99842 -0.199898 -7.28368 16.0032 3.34919e-06 -56.4217 3.77481 12.6483 -180 -80.4468 180 -15.6502 0.247498 -0.0339987 7.30111 -2.46106 -23.5758 15.0603 -10.8714 -70.2238 -0 -0 67.6586 1.23233e-06 -9.39398 -15.2692 2.49465 -5.43519e-06 -11.4361 2.76079 4.38465 -23.116 -0 -0 70.0784 1.63864e-05 19.3375 -3.58449 -1.25688 3.95547e-06 -24.5161 
-11.689 73.955 0.5357 -100.042 88.5946 -68.243 0 -0 0 20.2795 -10.8163 12.3548 22.6485 -13.5072 -9.0556e-06 59.1398 -6.09629 -7.61697 -0 88.3913 -0 -4.55531 5.80678 -0.2312 -7.43004 15.6613 -1.9101e-05 -57.1326 4.03875 13.2028 -180 -81.966 180 -15.3058 0.350804 -0.0470993 7.2497 -2.94855 -23.2148 15.0875 -11.1268 -69.4655 -0 -0 67.3223 2.97665e-05 -9.3346 -15.7353 2.55242 -1.60206e-05 -11.7036 2.56385 4.89712 -25.2855 -0 -0 71.9621 2.90472e-05 20.2529 -4.74483 -1.74829 1.04318e-05 -23.0366 
-10.743 74.224 0.6442 -98.1179 88.7142 -66.1899 0 -0 0 20.1073 -10.1291 12.881 22.2116 -12.9655 -9.0908e-05 59.1333 -5.02709 -7.02172 -1.37581e-05 88.9175 -1.40196e-05 -5.2171 5.62252 -0.256408 -7.53242 15.3389 2.53259e-05 -57.7645 4.34405 13.7639 -180 -83.5013 180 -14.9626 0.456701 -0.060001 7.14634 -3.40645 -22.7159 15.0815 -11.3913 -68.678 -0 -0 66.9554 -2.92955e-05 -9.28318 -16.1538 2.60383 -3.6761e-06 -12.2004 2.30368 5.34347 -27.514 -0 -0 73.7476 -2.74276e-06 21.0054 -5.89661 -2.25893 -1.37808e-06 -21.5561 
-9.8006 74.488 0.7461 -96.1212 88.8175 -64.0787 0 -0 0 19.877 -9.4816 13.4126 21.7206 -12.4686 -0.000100484 58.9754 -3.96337 -6.26831 -0.000145827 89.4847 -0.000145937 -5.76587 5.45364 -0.274799 -7.59039 15.0405 -1.17031e-05 -58.3169 4.69611 14.3361 -180 -85.0403 180 -14.6311 0.562998 -0.0722975 6.99704 -3.83864 -22.0969 15.037 -11.6669 -67.875 -0 -0 66.5685 -1.92026e-05 -9.2358 -16.5133 2.64619 -4.83233e-06 -12.9592 1.97992 5.7041 -29.8026 -0 -0 75.4307 2.57058e-06 21.5841 -7.04959 -2.77973 -1.23566e-05 -19.9735 
-8.8589 74.746 0.8393 -93.7913 88.9994 -61.6594 0 -0 0 19.5845 -8.87885 13.9574 21.1822 -12.0261 6.31965e-06 58.6787 -2.89804 -5.39878 -180 90 -180 -6.17211 5.30873 -0.286403 -7.60243 14.7731 2.45569e-05 -58.7854 5.09381 14.9248 -180 -86.5668 180 -14.3253 0.662501 -0.0832994 6.81175 -4.24385 -21.3874 14.945 -11.957 -67.0547 -0 -0 66.1789 2.35108e-05 -9.18296 -16.8205 2.67829 9.62569e-08 -13.8804 1.59095 5.96963 -32.1394 -0 -0 76.9942 4.22154e-05 21.9965 -8.1942 -3.29526 7.11132e-06 -18.3601 
-7.9178 74.998 0.9241 -91.231 89.2201 -59.0315 0 -0 0 19.2399 -8.31873 14.5104 20.6049 -11.6433 -5.26784e-05 58.2504 -1.83234 -4.45888 -180 89.2346 -180 -6.41633 5.19805 -0.291598 -7.57566 14.5389 2.75513e-05 -59.1642 5.53974 15.5341 -180 -88.0551 180 -14.0529 0.756205 -0.0931969 6.59698 -4.62355 -20.6142 14.813 -12.2621 -66.2273 -0 -0 65.7914 -3.92414e-05 -9.12151 -17.0779 2.69968 7.80414e-06 -14.9018 1.148 6.13694 -34.5248 -0 -0 78.4353 -6.38744e-05 22.2559 -9.33948 -3.79943 1.30653e-05 -16.6145 
-6.9764 75.243 1.0008 -88.0591 89.4197 -55.8033 0 -0 0 18.8517 -7.79891 15.0743 19.9905 -11.3216 -4.95322e-05 57.7113 -0.770027 -3.49754 -180 88.5381 -180 -6.48905 5.13052 -0.290999 -7.51593 14.3406 -1.01078e-05 -59.4524 6.03129 16.1645 -180 -89.4963 180 -13.8222 0.843907 -0.102299 6.36211 -4.97667 -19.8118 14.6442 -12.58 -65.393 -0 -0 65.4089 -2.68277e-05 -9.04855 -17.2944 2.71057 -1.968e-06 -15.9601 0.662351 6.20952 -36.9543 -0 -0 79.7402 -4.25234e-05 22.3889 -10.4694 -4.28079 -6.90208e-06 -14.8097 
-6.0339 75.482 1.0707 -83.4729 89.5811 -51.1671 0 -0 0 18.4276 -7.31507 15.6539 19.3412 -11.0571 2.97974e-05 57.0783 0.280299 -2.56234 -180 87.7169 -180 -6.3948 5.11207 -0.2858 -7.43138 14.1766 -4.02227e-05 -59.6457 6.56819 16.8155 1.53734e-05 -89.1186 -1.59294e-05 -13.6354 0.926404 -0.1108 6.11641 -5.30126 -19.0091 14.4474 -12.9088 -64.5534 -0 -0 65.0366 2.09236e-05 -8.963 -17.4818 2.71258 -1.48685e-05 -16.9829 0.147307 6.19627 -39.42 -0 -0 80.9005 -2.19725e-05 22.4275 -11.5691 -4.73179 -6.74898e-06 -12.9646 
-5.0893 75.715 1.1355 -73.4082 89.7149 -41.0524 0 -0 0 17.9785 -6.86173 16.2517 18.6592 -10.8434 6.92842e-05 56.3663 1.30603 -1.69502 -180 86.8699 -180 -6.15157 5.14397 -0.276601 -7.32867 14.0463 -2.85816e-05 -59.7456 7.15028 17.4849 0 -87.8453 0 -13.4915 1.00521 -0.118896 5.86907 -5.59486 -18.2355 14.2339 -13.2486 -63.7074 -0 -0 64.6713 -5.23309e-05 -8.86667 -17.6478 2.70768 3.60047e-06 -17.9361 -0.383269 6.10999 -41.9148 -0 -0 81.9056 0.000116464 22.4072 -12.6113 -5.14441 4.09665e-07 -11.1662 
-4.1415 75.941 1.1974 -24.7164 89.8564 7.68621 0 -0 0 17.5138 -6.4319 16.8681 17.9468 -10.672 -1.98235e-05 55.5878 2.29175 -0.929406 -180 85.9232 -180 -5.79133 5.22144 -0.264299 -7.21505 13.9471 -2.2993e-06 -59.754 7.78003 18.169 4.75539e-06 -86.6875 -5.03791e-06 -13.3878 1.0817 -0.127001 5.62784 -5.85558 -17.5133 14.0127 -13.5955 -62.8508 -0 -0 64.3125 -8.54991e-05 -8.76329 -17.7992 2.69793 5.6253e-06 -18.8106 -0.917289 5.9657 -44.4319 -0 -0 82.7465 0.000124065 22.363 -13.5675 -5.51289 2.34065e-06 -9.49455 
-3.1891 76.159 1.2583 62.067 89.9459 94.4267 0 -0 0 17.0426 -6.0201 17.5041 17.204 -10.5341 -2.98029e-05 54.7524 3.22079 -0.288839 -180 84.9247 -180 -5.35587 5.33448 -0.249697 -7.09662 13.8755 8.75916e-06 -59.6727 8.46112 18.862 -3.58062e-06 -85.6483 3.31898e-06 -13.3153 1.15699 -0.135098 5.39902 -6.08249 -16.8623 13.7915 -13.9458 -61.981 -0 -0 63.9588 -5.21098e-05 -8.6574 -17.9372 2.68481 5.54726e-06 -19.6483 -1.44592 5.77973 -46.9606 -0 -0 83.4118 2.48047e-05 22.3222 -14.4091 -5.83369 3.49963e-07 -8.05243 
-2.2303 76.369 1.3202 77.4825 89.7841 109.849 0 -0 0 16.5718 -5.61924 18.1548 16.4372 -10.4217 1.26347e-05 53.859 4.07711 0.213791 -180 83.865 -180 -4.8923 5.4686 -0.233806 -6.97724 13.8273 2.92726e-05 -59.5099 9.19803 19.5572 3.15069e-06 -84.7552 -3.45289e-06 -13.2661 1.23138 -0.143201 5.1862 -6.27636 -16.291 13.5793 -14.2984 -61.0965 -0 -0 63.6095 -2.01635e-06 -8.55293 -18.062 2.6697 5.18298e-06 -20.489 -1.96349 5.56863 -49.4885 -0 -0 83.8894 4.02825e-05 22.3063 -15.1187 -6.10762 1.85237e-06 -6.85615 
-1.2627 76.569 1.3851 83.5057 89.579 115.857 0 -0 0 16.1133 -5.22392 18.8131 15.6493 -10.3285 7.84805e-05 52.9044 4.84764 0.575245 -180 82.7581 -180 -4.44816 5.6075 -0.217904 -6.86437 13.7987 2.3484e-05 -59.2697 9.99646 20.2501 -2.151e-06 -84.0106 1.93725e-06 -13.2294 1.30371 -0.151205 4.98785 -6.43945 -15.8039 13.3819 -14.6476 -60.1926 -0 -0 63.265 -5.30557e-05 -8.45341 -18.1667 2.65303 2.22446e-05 -21.364 -2.4663 5.34907 -52.0048 -0 -0 84.1685 -0.000141363 22.3179 -15.692 -6.33496 -2.25837e-06 -5.90604 
-0.2828 76.757 1.4518 87.245 89.397 119.559 0 -0 0 15.6599 -4.82965 19.4768 14.8603 -10.2473 2.81296e-05 51.8684 5.51851 0.800739 -180 81.6171 -180 -4.0626 5.73041 -0.203407 -6.75173 13.7828 2.6228e-05 -58.9641 10.8626 20.9335 -1.9671e-06 -83.4264 1.75331e-06 -13.1961 1.37468 -0.159 4.81064 -6.57627 -15.3999 13.1906 -14.9961 -59.2702 -0 -0 62.9319 7.61407e-06 -8.35499 -18.2363 2.63136 -6.87779e-06 -22.4462 -2.96887 5.13079 -54.4877 -0 -0 84.23 7.43302e-05 22.3536 -16.1256 -6.51596 -2.53247e-08 -5.26827 
0.712 76.931 1.5224 90.3285 89.2757 122.596 0 -0 0 15.229 -4.43415 20.1288 14.073 -10.1769 -1.23523e-05 50.7443 6.08652 0.900733 -180 80.4622 -180 -3.76839 5.8236 -0.191699 -6.65053 13.781 -2.80881e-05 -58.5993 11.7988 21.6077 1.15792e-06 -82.9821 -1.30913e-06 -13.1595 1.43985 -0.166095 4.64274 -6.69196 -15.0693 13.0152 -15.3398 -58.3261 -0 -0 62.6108 -1.61938e-05 -8.25621 -18.2704 2.60458 3.23079e-06 -23.6969 -3.46948 4.92853 -56.9261 -0 -0 84.0658 0.000124955 22.3897 -16.4442 -6.65203 3.74714e-06 -4.78913 
1.7254 77.09 1.5958 93.4487 89.2329 125.666 0 -0 0 14.821 -4.03601 20.7579 13.3065 -10.1155 -3.03175e-05 49.5136 6.54917 0.890056 -180 79.2976 -180 -3.58205 5.87333 -0.183804 -6.56032 13.7872 1.50998e-05 -58.1822 12.8048 22.2698 0 -82.6941 0 -13.1151 1.4974 -0.172104 4.4815 -6.79406 -14.7996 12.8503 -15.6821 -57.3618 -0 -0 62.308 -2.5351e-05 -8.14832 -18.2604 2.56882 1.67775e-05 -25.1716 -3.98269 4.74874 -59.3014 -0 -0 83.6595 -8.99839e-05 22.3947 -16.6629 -6.73854 -4.40891e-06 -4.49191 
2.7609 77.23 1.6714 97.0818 89.1318 129.221 0 -0 0 14.441 -3.63561 21.3507 12.5731 -10.0641 -5.71008e-06 48.1637 6.90971 0.785257 -180 78.1499 -180 -3.50563 5.87034 -0.179804 -6.48219 13.804 2.59657e-05 -57.7219 13.8768 22.9215 -1.74667e-06 -82.5398 1.53279e-06 -13.0621 1.54428 -0.176801 4.32189 -6.89023 -14.5794 12.692 -16.0254 -56.3751 -0 -0 62.0326 -2.58262e-05 -8.02045 -18.2035 2.52036 9.86473e-06 -26.8836 -4.52129 4.59546 -61.5961 -0 -0 82.9992 0.000120939 22.329 -16.7991 -6.76958 1.11727e-07 -4.31841 
3.8215 77.351 1.7481 101.498 89.134 133.565 0 -0 0 14.0937 -3.2357 21.8928 11.8891 -10.0246 -2.75086e-05 46.685 7.17573 0.603149 -180 77.0342 -180 -3.52803 5.81147 -0.179101 -6.41666 13.8338 -1.74325e-05 -57.2264 15.0071 23.5685 3.04809e-06 -82.4947 -3.47591e-06 -13.0032 1.57763 -0.179804 4.15951 -6.98757 -14.3917 12.5391 -16.3769 -55.3703 -0 -0 61.7877 -7.27555e-05 -7.86032 -18.1003 2.45606 2.2806e-05 -28.8045 -5.09848 4.46935 -63.7942 -0 -0 82.0732 0.000105662 22.1505 -16.8656 -6.73596 6.55372e-06 -4.27643 
4.9101 77.451 1.8249 107.272 89.0875 139.243 0 -0 0 13.781 -2.83983 22.3741 11.2653 -10.0007 -5.0793e-06 45.0756 7.35775 0.36062 -180 75.9721 -180 -3.62662 5.69903 -0.1806 -6.36366 13.8773 -3.32286e-05 -56.7009 16.1821 24.2148 9.1066e-07 -82.5537 -1.49502e-06 -12.9436 1.59491 -0.180903 3.9917 -7.09324 -14.223 12.3886 -16.7422 -54.3432 -0 -0 61.575 2.20303e-05 -7.65544 -17.962 2.37367 1.67166e-05 -30.8801 -5.7258 4.36794 -65.878 -0 -0 80.8739 4.47259e-05 21.821 -16.8634 -6.62522 3.89863e-06 -4.39252 
6.0292 77.53 1.9012 114.585 89.0952 146.464 0 -0 0 13.5056 -2.45204 22.7827 10.7105 -9.99616 7.59583e-07 43.3455 7.46835 0.0741247 -180 74.9791 -180 -3.77253 5.54138 -0.182601 -6.32094 13.9382 -8.19516e-06 -56.1519 17.3861 24.8664 -1.78009e-06 -82.6833 1.5662e-06 -12.8917 1.59442 -0.180113 3.81876 -7.21189 -14.0625 12.241 -17.1301 -53.295 -0 -0 61.394 1.62969e-05 -7.39599 -17.7966 2.27188 -1.84978e-05 -33.0453 -6.41237 4.28607 -67.8354 -0 -0 79.3945 -4.13044e-05 21.314 -16.7782 -6.42608 4.61896e-06 -4.721 
7.1806 77.586 1.9766 123.757 89.0328 155.514 0 -0 0 13.2709 -2.07773 23.1125 10.2295 -10.0154 5.82723e-06 41.511 7.52134 -0.240395 -180 74.0738 -180 -3.93477 5.35147 -0.184003 -6.2846 14.0212 3.18841e-06 -55.5906 18.6008 25.5273 0 -82.8735 0 -12.8535 1.57534 -0.177501 3.64463 -7.34688 -13.902 12.0962 -17.5485 -52.2213 -0 -0 61.241 -1.97605e-05 -7.07626 -17.617 2.15155 -1.27352e-05 -35.2398 -7.16444 4.21743 -69.6528 -0 -0 77.6326 -4.27141e-05 20.6199 -16.5873 -6.13089 4.18087e-06 -5.33253 
